# xmcd
# Track frame offsets:
# 150
# 7716
# 20431
# 38733
# 57033
# 80357
# 104145
# 122357
# 136627
# 150597
# 167924
#
# Disc length: 2506 seconds
# Revision: 0
# Processed by: cddbd v1.5.2PL0 Copyright (c) Steve Scherf et al.
# Submitted via: VisiTrax 2.11.1.266 - For more info visit www.synapsa.com
#
DISCID=7509c80b
DTITLE=Cookies N Beans - Beg, Borrow And Steal
DYEAR=2010
DGENRE=
TTITLE0=It´s alright
TTITLE1=Your love is loaded
TTITLE2=Beg, borrow and steal
TTITLE3=Now it´s too late
TTITLE4=KIng and queens
TTITLE5=Shallow waters
TTITLE6=Don´t walk out that door
TTITLE7=Watch my tail
TTITLE8=The road away from you
TTITLE9=I just don´t have the heart
TTITLE10=We once were lovers
EXTD=
EXTT0=
EXTT1=
EXTT2=
EXTT3=
EXTT4=
EXTT5=
EXTT6=
EXTT7=
EXTT8=
EXTT9=
EXTT10=
PLAYORDER=
